<svg xmlns="http://www.w3.org/2000/svg" width="214.76" height="35" viewBox="0 0 214.76 35"><rect class="svg__rect" x="0" y="0" width="115.31" height="35" fill="#68A063"/><rect class="svg__rect" x="113.31" y="0" width="101.44999999999999" height="35" fill="#3C873A"/><path class="svg__text" d="M15.69 22L14.22 22L14.22 13.47L16.14 13.47L18.60 20.01L21.06 13.47L22.97 13.47L22.97 22L21.49 22L21.49 19.19L21.64 15.43L19.12 22L18.06 22L15.55 15.43L15.69 19.19L15.69 22ZM28.49 22L26.95 22L30.17 13.47L31.50 13.47L34.73 22L33.18 22L32.49 20.01L29.18 20.01L28.49 22ZM30.83 15.28L29.60 18.82L32.07 18.82L30.83 15.28ZM41.14 22L38.69 22L38.69 13.47L41.21 13.47Q42.34 13.47 43.21 13.97Q44.09 14.48 44.57 15.40Q45.05 16.33 45.05 17.52L45.05 17.52L45.05 17.95Q45.05 19.16 44.57 20.08Q44.08 21.00 43.19 21.50Q42.30 22 41.14 22L41.14 22ZM40.17 14.66L40.17 20.82L41.14 20.82Q42.30 20.82 42.93 20.09Q43.55 19.36 43.56 17.99L43.56 17.99L43.56 17.52Q43.56 16.13 42.96 15.40Q42.35 14.66 41.21 14.66L41.21 14.66L40.17 14.66ZM55.09 22L49.51 22L49.51 13.47L55.05 13.47L55.05 14.66L51.00 14.66L51.00 17.02L54.50 17.02L54.50 18.19L51.00 18.19L51.00 20.82L55.09 20.82L55.09 22ZM66.65 22L64.68 13.47L66.15 13.47L67.47 19.88L69.10 13.47L70.34 13.47L71.96 19.89L73.27 13.47L74.74 13.47L72.77 22L71.35 22L69.73 15.77L68.07 22L66.65 22ZM80.38 22L78.90 22L78.90 13.47L80.38 13.47L80.38 22ZM86.87 14.66L84.23 14.66L84.23 13.47L91.00 13.47L91.00 14.66L88.34 14.66L88.34 22L86.87 22L86.87 14.66ZM96.24 22L94.75 22L94.75 13.47L96.24 13.47L96.24 17.02L100.05 17.02L100.05 13.47L101.53 13.47L101.53 22L100.05 22L100.05 18.21L96.24 18.21L96.24 22Z" fill="#FFFFFF"/><path class="svg__text" d="M129.83 22L127.50 22L127.50 13.60L129.45 13.60L133.16 18.07L133.16 13.60L135.49 13.60L135.49 22L133.54 22L129.83 17.52L129.83 22ZM140.22 17.80L140.22 17.80Q140.22 16.55 140.83 15.55Q141.43 14.56 142.49 14.00Q143.56 13.43 144.89 13.43L144.89 13.43Q146.22 13.43 147.28 14.00Q148.35 14.56 148.95 15.55Q149.56 16.55 149.56 17.80L149.56 17.80Q149.56 19.05 148.95 20.04Q148.35 21.04 147.28 21.60Q146.22 22.17 144.89 22.17L144.89 22.17Q143.56 22.17 142.49 21.60Q141.43 21.04 140.83 20.04Q140.22 19.05 140.22 17.80ZM142.62 17.80L142.62 17.80Q142.62 18.51 142.92 19.05Q143.22 19.60 143.74 19.90Q144.26 20.20 144.89 20.20L144.89 20.20Q145.53 20.20 146.04 19.90Q146.56 19.60 146.86 19.05Q147.16 18.51 147.16 17.80L147.16 17.80Q147.16 17.09 146.86 16.54Q146.56 16 146.04 15.70Q145.53 15.40 144.89 15.40L144.89 15.40Q144.25 15.40 143.74 15.70Q143.22 16 142.92 16.54Q142.62 17.09 142.62 17.80ZM158.26 22L154.29 22L154.29 13.60L158.26 13.60Q159.64 13.60 160.71 14.12Q161.78 14.63 162.36 15.58Q162.95 16.53 162.95 17.80L162.95 17.80Q162.95 19.07 162.36 20.02Q161.78 20.97 160.71 21.48Q159.64 22 158.26 22L158.26 22ZM156.67 15.50L156.67 20.10L158.17 20.10Q159.24 20.10 159.90 19.49Q160.55 18.88 160.55 17.80L160.55 17.80Q160.55 16.72 159.90 16.11Q159.24 15.50 158.17 15.50L158.17 15.50L156.67 15.50ZM174.43 22L167.68 22L167.68 13.60L174.27 13.60L174.27 15.44L170.04 15.44L170.04 16.85L173.77 16.85L173.77 18.63L170.04 18.63L170.04 20.17L174.43 20.17L174.43 22ZM178.71 20.75L178.71 20.75Q178.71 20.15 179.10 19.78Q179.49 19.41 180.09 19.41L180.09 19.41Q180.68 19.41 181.07 19.78Q181.45 20.15 181.45 20.75L181.45 20.75Q181.45 21.34 181.06 21.72Q180.67 22.11 180.09 22.11L180.09 22.11Q179.51 22.11 179.11 21.72Q178.71 21.34 178.71 20.75ZM185.03 20.93L185.03 20.93L186.33 19.40Q186.99 20.27 187.77 20.27L187.77 20.27Q187.77 20.27 187.78 20.27L187.78 20.27Q188.29 20.27 188.56 19.96Q188.83 19.65 188.83 19.05L188.83 19.05L188.83 15.44L185.93 15.44L185.93 13.60L191.19 13.60L191.19 18.91Q191.19 20.54 190.37 21.36Q189.54 22.17 187.95 22.17L187.95 22.17Q187.02 22.17 186.27 21.85Q185.51 21.53 185.03 20.93ZM195.69 21.24L195.69 21.24L196.47 19.49Q197.03 19.86 197.78 20.09Q198.52 20.32 199.24 20.32L199.24 20.32Q200.61 20.32 200.61 19.64L200.61 19.64Q200.61 19.28 200.22 19.11Q199.83 18.93 198.96 18.74L198.96 18.74Q198.02 18.53 197.38 18.30Q196.74 18.06 196.29 17.55Q195.84 17.03 195.84 16.16L195.84 16.16Q195.84 15.39 196.25 14.77Q196.67 14.15 197.51 13.79Q198.34 13.43 199.55 13.43L199.55 13.43Q200.38 13.43 201.18 13.62Q201.99 13.80 202.60 14.17L202.60 14.17L201.87 15.93Q200.67 15.28 199.54 15.28L199.54 15.28Q198.83 15.28 198.51 15.49Q198.19 15.70 198.19 16.04L198.19 16.04Q198.19 16.37 198.57 16.54Q198.95 16.71 199.80 16.89L199.80 16.89Q200.76 17.10 201.39 17.33Q202.02 17.56 202.49 18.07Q202.95 18.58 202.95 19.46L202.95 19.46Q202.95 20.21 202.53 20.83Q202.11 21.44 201.27 21.80Q200.43 22.17 199.23 22.17L199.23 22.17Q198.21 22.17 197.25 21.92Q196.29 21.67 195.69 21.24Z" fill="#FFFFFF" x="126.31"/></svg>