<svg xmlns="http://www.w3.org/2000/svg" width="185.32" height="35" viewBox="0 0 185.32 35"><rect class="svg__rect" x="0" y="0" width="64.89" height="35" fill="#4DB33D"/><rect class="svg__rect" x="62.89" y="0" width="122.42999999999999" height="35" fill="#3FA037"/><path class="svg__text" d="M14.08 19.16L14.08 19.16L14.08 13.47L15.56 13.47L15.56 19.18Q15.56 20.03 15.99 20.48Q16.43 20.93 17.27 20.93L17.27 20.93Q18.98 20.93 18.98 19.13L18.98 19.13L18.98 13.47L20.46 13.47L20.46 19.17Q20.46 20.53 19.59 21.32Q18.72 22.12 17.27 22.12L17.27 22.12Q15.81 22.12 14.94 21.33Q14.08 20.55 14.08 19.16ZM24.59 19.42L24.59 19.42L26.08 19.42Q26.08 20.15 26.56 20.55Q27.04 20.95 27.93 20.95L27.93 20.95Q28.71 20.95 29.10 20.63Q29.49 20.32 29.49 19.80L29.49 19.80Q29.49 19.24 29.09 18.94Q28.70 18.63 27.66 18.32Q26.63 18.01 26.02 17.63L26.02 17.63Q24.86 16.90 24.86 15.72L24.86 15.72Q24.86 14.69 25.70 14.02Q26.54 13.35 27.88 13.35L27.88 13.35Q28.77 13.35 29.47 13.68Q30.17 14.01 30.56 14.61Q30.96 15.22 30.96 15.96L30.96 15.96L29.49 15.96Q29.49 15.29 29.07 14.91Q28.65 14.54 27.87 14.54L27.87 14.54Q27.14 14.54 26.74 14.85Q26.34 15.16 26.34 15.71L26.34 15.71Q26.34 16.18 26.77 16.50Q27.21 16.81 28.20 17.10Q29.20 17.40 29.80 17.78Q30.41 18.16 30.69 18.65Q30.97 19.13 30.97 19.79L30.97 19.79Q30.97 20.86 30.15 21.49Q29.33 22.12 27.93 22.12L27.93 22.12Q27.01 22.12 26.23 21.77Q25.46 21.43 25.02 20.83Q24.59 20.22 24.59 19.42ZM40.84 22L35.26 22L35.26 13.47L40.80 13.47L40.80 14.66L36.74 14.66L36.74 17.02L40.24 17.02L40.24 18.19L36.74 18.19L36.74 20.82L40.84 20.82L40.84 22ZM44.60 19.42L44.60 19.42L46.08 19.42Q46.08 20.15 46.56 20.55Q47.04 20.95 47.94 20.95L47.94 20.95Q48.71 20.95 49.10 20.63Q49.49 20.32 49.49 19.80L49.49 19.80Q49.49 19.24 49.10 18.94Q48.70 18.63 47.67 18.32Q46.64 18.01 46.03 17.63L46.03 17.63Q44.86 16.90 44.86 15.72L44.86 15.72Q44.86 14.69 45.70 14.02Q46.54 13.35 47.89 13.35L47.89 13.35Q48.78 13.35 49.47 13.68Q50.17 14.01 50.57 14.61Q50.97 15.22 50.97 15.96L50.97 15.96L49.49 15.96Q49.49 15.29 49.07 14.91Q48.65 14.54 47.87 14.54L47.87 14.54Q47.15 14.54 46.75 14.85Q46.34 15.16 46.34 15.71L46.34 15.71Q46.34 16.18 46.78 16.50Q47.21 16.81 48.21 17.10Q49.20 17.40 49.81 17.78Q50.41 18.16 50.69 18.65Q50.97 19.13 50.97 19.79L50.97 19.79Q50.97 20.86 50.16 21.49Q49.34 22.12 47.94 22.12L47.94 22.12Q47.01 22.12 46.24 21.77Q45.46 21.43 45.03 20.83Q44.60 20.22 44.60 19.42Z" fill="#FFFFFF"/><path class="svg__text" d="M79.28 22L77.08 22L77.08 13.60L79.03 13.60L81.99 18.45L84.87 13.60L86.82 13.60L86.85 22L84.67 22L84.64 17.55L82.48 21.17L81.43 21.17L79.28 17.67L79.28 22ZM91.58 17.80L91.58 17.80Q91.58 16.55 92.18 15.55Q92.79 14.56 93.85 14.00Q94.91 13.43 96.24 13.43L96.24 13.43Q97.57 13.43 98.64 14.00Q99.70 14.56 100.31 15.55Q100.91 16.55 100.91 17.80L100.91 17.80Q100.91 19.05 100.31 20.04Q99.70 21.04 98.64 21.60Q97.58 22.17 96.24 22.17L96.24 22.17Q94.91 22.17 93.85 21.60Q92.79 21.04 92.18 20.04Q91.58 19.05 91.58 17.80ZM93.98 17.80L93.98 17.80Q93.98 18.51 94.28 19.05Q94.58 19.60 95.10 19.90Q95.61 20.20 96.24 20.20L96.24 20.20Q96.88 20.20 97.40 19.90Q97.91 19.60 98.21 19.05Q98.51 18.51 98.51 17.80L98.51 17.80Q98.51 17.09 98.21 16.54Q97.91 16 97.40 15.70Q96.88 15.40 96.24 15.40L96.24 15.40Q95.61 15.40 95.09 15.70Q94.58 16 94.28 16.54Q93.98 17.09 93.98 17.80ZM107.97 22L105.64 22L105.64 13.60L107.60 13.60L111.31 18.07L111.31 13.60L113.63 13.60L113.63 22L111.68 22L107.97 17.52L107.97 22ZM118.37 17.80L118.37 17.80Q118.37 16.54 118.97 15.54Q119.56 14.55 120.63 13.99Q121.70 13.43 123.04 13.43L123.04 13.43Q124.22 13.43 125.16 13.83Q126.10 14.22 126.72 14.97L126.72 14.97L125.21 16.33Q124.36 15.40 123.19 15.40L123.19 15.40Q123.17 15.40 123.17 15.40L123.17 15.40Q122.09 15.40 121.43 16.06Q120.77 16.71 120.77 17.80L120.77 17.80Q120.77 18.50 121.07 19.04Q121.37 19.59 121.91 19.89Q122.45 20.20 123.14 20.20L123.14 20.20Q123.83 20.20 124.43 19.93L124.43 19.93L124.43 17.62L126.53 17.62L126.53 21.10Q125.80 21.61 124.87 21.89Q123.94 22.17 123.00 22.17L123.00 22.17Q121.68 22.17 120.62 21.61Q119.56 21.05 118.97 20.05Q118.37 19.06 118.37 17.80ZM131.09 17.80L131.09 17.80Q131.09 16.55 131.69 15.55Q132.30 14.56 133.36 14.00Q134.42 13.43 135.75 13.43L135.75 13.43Q137.08 13.43 138.15 14.00Q139.21 14.56 139.82 15.55Q140.42 16.55 140.42 17.80L140.42 17.80Q140.42 19.05 139.82 20.04Q139.21 21.04 138.15 21.60Q137.09 22.17 135.75 22.17L135.75 22.17Q134.42 22.17 133.36 21.60Q132.30 21.04 131.69 20.04Q131.09 19.05 131.09 17.80ZM133.49 17.80L133.49 17.80Q133.49 18.51 133.79 19.05Q134.09 19.60 134.61 19.90Q135.12 20.20 135.75 20.20L135.75 20.20Q136.39 20.20 136.91 19.90Q137.42 19.60 137.72 19.05Q138.02 18.51 138.02 17.80L138.02 17.80Q138.02 17.09 137.72 16.54Q137.42 16 136.91 15.70Q136.39 15.40 135.75 15.40L135.75 15.40Q135.11 15.40 134.60 15.70Q134.09 16 133.79 16.54Q133.49 17.09 133.49 17.80ZM156.10 22L152.12 22L152.12 13.60L156.10 13.60Q157.48 13.60 158.55 14.12Q159.61 14.63 160.20 15.58Q160.79 16.53 160.79 17.80L160.79 17.80Q160.79 19.07 160.20 20.02Q159.61 20.97 158.55 21.48Q157.48 22 156.10 22L156.10 22ZM154.50 15.50L154.50 20.10L156.00 20.10Q157.08 20.10 157.74 19.49Q158.39 18.88 158.39 17.80L158.39 17.80Q158.39 16.72 157.74 16.11Q157.08 15.50 156.00 15.50L156.00 15.50L154.50 15.50ZM170.06 22L165.52 22L165.52 13.60L169.82 13.60Q171.43 13.60 172.27 14.19Q173.11 14.79 173.11 15.79L173.11 15.79Q173.11 16.39 172.81 16.87Q172.52 17.34 171.98 17.62L171.98 17.62Q172.70 17.87 173.10 18.41Q173.51 18.94 173.51 19.70L173.51 19.70Q173.51 20.80 172.62 21.40Q171.74 22 170.06 22L170.06 22ZM167.87 18.58L167.87 20.28L169.87 20.28Q171.11 20.28 171.11 19.43L171.11 19.43Q171.11 18.58 169.87 18.58L169.87 18.58L167.87 18.58ZM167.87 15.31L167.87 16.94L169.50 16.94Q170.70 16.94 170.70 16.12L170.70 16.12Q170.70 15.31 169.50 15.31L169.50 15.31L167.87 15.31Z" fill="#FFFFFF" x="75.89"/></svg>