<svg xmlns="http://www.w3.org/2000/svg" width="221.07999999999998" height="35" viewBox="0 0 221.07999999999998 35"><rect class="svg__rect" x="0" y="0" width="64.89" height="35" fill="#31C4F3"/><rect class="svg__rect" x="62.89" y="0" width="158.19" height="35" fill="#389AD5"/><path class="svg__text" d="M14.08 19.16L14.08 19.16L14.08 13.47L15.56 13.47L15.56 19.18Q15.56 20.03 15.99 20.48Q16.43 20.93 17.27 20.93L17.27 20.93Q18.98 20.93 18.98 19.13L18.98 19.13L18.98 13.47L20.46 13.47L20.46 19.17Q20.46 20.53 19.59 21.32Q18.72 22.12 17.27 22.12L17.27 22.12Q15.81 22.12 14.94 21.33Q14.08 20.55 14.08 19.16ZM24.59 19.42L24.59 19.42L26.08 19.42Q26.08 20.15 26.56 20.55Q27.04 20.95 27.93 20.95L27.93 20.95Q28.71 20.95 29.10 20.63Q29.49 20.32 29.49 19.80L29.49 19.80Q29.49 19.24 29.09 18.94Q28.70 18.63 27.66 18.32Q26.63 18.01 26.02 17.63L26.02 17.63Q24.86 16.90 24.86 15.72L24.86 15.72Q24.86 14.69 25.70 14.02Q26.54 13.35 27.88 13.35L27.88 13.35Q28.77 13.35 29.47 13.68Q30.17 14.01 30.56 14.61Q30.96 15.22 30.96 15.96L30.96 15.96L29.49 15.96Q29.49 15.29 29.07 14.91Q28.65 14.54 27.87 14.54L27.87 14.54Q27.14 14.54 26.74 14.85Q26.34 15.16 26.34 15.71L26.34 15.71Q26.34 16.18 26.77 16.50Q27.21 16.81 28.20 17.10Q29.20 17.40 29.80 17.78Q30.41 18.16 30.69 18.65Q30.97 19.13 30.97 19.79L30.97 19.79Q30.97 20.86 30.15 21.49Q29.33 22.12 27.93 22.12L27.93 22.12Q27.01 22.12 26.23 21.77Q25.46 21.43 25.02 20.83Q24.59 20.22 24.59 19.42ZM40.84 22L35.26 22L35.26 13.47L40.80 13.47L40.80 14.66L36.74 14.66L36.74 17.02L40.24 17.02L40.24 18.19L36.74 18.19L36.74 20.82L40.84 20.82L40.84 22ZM44.60 19.42L44.60 19.42L46.08 19.42Q46.08 20.15 46.56 20.55Q47.04 20.95 47.94 20.95L47.94 20.95Q48.71 20.95 49.10 20.63Q49.49 20.32 49.49 19.80L49.49 19.80Q49.49 19.24 49.10 18.94Q48.70 18.63 47.67 18.32Q46.64 18.01 46.03 17.63L46.03 17.63Q44.86 16.90 44.86 15.72L44.86 15.72Q44.86 14.69 45.70 14.02Q46.54 13.35 47.89 13.35L47.89 13.35Q48.78 13.35 49.47 13.68Q50.17 14.01 50.57 14.61Q50.97 15.22 50.97 15.96L50.97 15.96L49.49 15.96Q49.49 15.29 49.07 14.91Q48.65 14.54 47.87 14.54L47.87 14.54Q47.15 14.54 46.75 14.85Q46.34 15.16 46.34 15.71L46.34 15.71Q46.34 16.18 46.78 16.50Q47.21 16.81 48.21 17.10Q49.20 17.40 49.81 17.78Q50.41 18.16 50.69 18.65Q50.97 19.13 50.97 19.79L50.97 19.79Q50.97 20.86 50.16 21.49Q49.34 22.12 47.94 22.12L47.94 22.12Q47.01 22.12 46.24 21.77Q45.46 21.43 45.03 20.83Q44.60 20.22 44.60 19.42Z" fill="#FFFFFF"/><path class="svg__text" d="M78.87 15.48L76.29 15.48L76.29 13.60L83.81 13.60L83.81 15.48L81.24 15.48L81.24 22L78.87 22L78.87 15.48ZM89.60 22L87.17 22L90.88 13.60L93.23 13.60L96.94 22L94.47 22L93.81 20.37L90.26 20.37L89.60 22ZM92.04 15.93L90.95 18.61L93.11 18.61L92.04 15.93ZM103.47 22L101.10 22L101.10 13.60L103.47 13.60L103.47 22ZM115.03 22L108.65 22L108.65 13.60L111.03 13.60L111.03 20.11L115.03 20.11L115.03 22ZM121.53 22L118.81 13.60L121.26 13.60L122.95 18.96L124.72 13.60L126.91 13.60L128.60 19.01L130.36 13.60L132.63 13.60L129.91 22L127.36 22L125.76 16.89L124.08 22L121.53 22ZM139.52 22L137.14 22L137.14 13.60L139.52 13.60L139.52 22ZM147.03 22L144.70 22L144.70 13.60L146.65 13.60L150.36 18.07L150.36 13.60L152.69 13.60L152.69 22L150.74 22L147.03 17.52L147.03 22ZM161.82 22L157.85 22L157.85 13.60L161.82 13.60Q163.20 13.60 164.27 14.12Q165.34 14.63 165.93 15.58Q166.52 16.53 166.52 17.80L166.52 17.80Q166.52 19.07 165.93 20.02Q165.34 20.97 164.27 21.48Q163.20 22 161.82 22L161.82 22ZM160.23 15.50L160.23 20.10L161.73 20.10Q162.81 20.10 163.46 19.49Q164.11 18.88 164.11 17.80L164.11 17.80Q164.11 16.72 163.46 16.11Q162.81 15.50 161.73 15.50L161.73 15.50L160.23 15.50ZM177.79 17.80L177.79 17.80Q177.79 16.54 178.39 15.54Q178.98 14.55 180.04 13.99Q181.09 13.43 182.41 13.43L182.41 13.43Q183.56 13.43 184.48 13.84Q185.41 14.25 186.02 15.02L186.02 15.02L184.51 16.39Q183.70 15.40 182.53 15.40L182.53 15.40Q181.84 15.40 181.31 15.70Q180.78 16 180.48 16.54Q180.19 17.09 180.19 17.80L180.19 17.80Q180.19 18.51 180.48 19.05Q180.78 19.60 181.31 19.90Q181.84 20.20 182.53 20.20L182.53 20.20Q183.70 20.20 184.51 19.22L184.51 19.22L186.02 20.58Q185.41 21.35 184.49 21.76Q183.56 22.17 182.41 22.17L182.41 22.17Q181.09 22.17 180.04 21.61Q178.98 21.05 178.39 20.05Q177.79 19.06 177.79 17.80ZM189.97 21.24L189.97 21.24L190.75 19.49Q191.31 19.86 192.06 20.09Q192.80 20.32 193.52 20.32L193.52 20.32Q194.89 20.32 194.89 19.64L194.89 19.64Q194.89 19.28 194.50 19.11Q194.11 18.93 193.25 18.74L193.25 18.74Q192.30 18.53 191.66 18.30Q191.03 18.06 190.57 17.55Q190.12 17.03 190.12 16.16L190.12 16.16Q190.12 15.39 190.54 14.77Q190.95 14.15 191.79 13.79Q192.62 13.43 193.83 13.43L193.83 13.43Q194.66 13.43 195.46 13.62Q196.27 13.80 196.88 14.17L196.88 14.17L196.15 15.93Q194.95 15.28 193.82 15.28L193.82 15.28Q193.11 15.28 192.79 15.49Q192.47 15.70 192.47 16.04L192.47 16.04Q192.47 16.37 192.85 16.54Q193.23 16.71 194.08 16.89L194.08 16.89Q195.04 17.10 195.67 17.33Q196.30 17.56 196.77 18.07Q197.23 18.58 197.23 19.46L197.23 19.46Q197.23 20.21 196.81 20.83Q196.39 21.44 195.55 21.80Q194.71 22.17 193.51 22.17L193.51 22.17Q192.49 22.17 191.53 21.92Q190.57 21.67 189.97 21.24ZM201.22 21.24L201.22 21.24L202.00 19.49Q202.56 19.86 203.31 20.09Q204.05 20.32 204.77 20.32L204.77 20.32Q206.14 20.32 206.14 19.64L206.14 19.64Q206.14 19.28 205.75 19.11Q205.36 18.93 204.50 18.74L204.50 18.74Q203.55 18.53 202.91 18.30Q202.28 18.06 201.82 17.55Q201.37 17.03 201.37 16.16L201.37 16.16Q201.37 15.39 201.79 14.77Q202.20 14.15 203.04 13.79Q203.87 13.43 205.08 13.43L205.08 13.43Q205.91 13.43 206.71 13.62Q207.52 13.80 208.13 14.17L208.13 14.17L207.40 15.93Q206.20 15.28 205.07 15.28L205.07 15.28Q204.36 15.28 204.04 15.49Q203.72 15.70 203.72 16.04L203.72 16.04Q203.72 16.37 204.10 16.54Q204.48 16.71 205.33 16.89L205.33 16.89Q206.29 17.10 206.92 17.33Q207.55 17.56 208.02 18.07Q208.48 18.58 208.48 19.46L208.48 19.46Q208.48 20.21 208.06 20.83Q207.64 21.44 206.80 21.80Q205.96 22.17 204.76 22.17L204.76 22.17Q203.74 22.17 202.78 21.92Q201.82 21.67 201.22 21.24Z" fill="#FFFFFF" x="75.89"/></svg>